<svg xmlns="http://www.w3.org/2000/svg" xmlns:xlink="http://www.w3.org/1999/xlink" width="1080" zoomAndPan="magnify" viewBox="0 0 810 809.999993" height="1080" preserveAspectRatio="xMidYMid meet" version="1.2"><defs><clipPath id="93303f66bb"><rect x="0" width="810" y="0" height="810"/></clipPath><clipPath id="54f0fd65ca"><path d="M 68.355469 499.421875 L 285 499.421875 L 285 716.171875 L 68.355469 716.171875 Z M 68.355469 499.421875 "/></clipPath><clipPath id="11f5660257"><path d="M 263 203.507812 L 351 203.507812 L 351 284 L 263 284 Z M 263 203.507812 "/></clipPath><clipPath id="e51eb375c4"><path d="M 186 120 L 384 120 L 384 318 L 186 318 Z M 186 120 "/></clipPath><clipPath id="c3c8ab4cc6"><path d="M 169.960938 212.65625 L 291.425781 104.332031 L 399.75 225.796875 L 278.285156 334.121094 Z M 169.960938 212.65625 "/></clipPath><clipPath id="d778029141"><path d="M 169.960938 212.65625 L 291.425781 104.332031 L 399.75 225.796875 L 278.285156 334.121094 Z M 169.960938 212.65625 "/></clipPath><clipPath id="70467f9e60"><path d="M 525 172 L 722 172 L 722 370 L 525 370 Z M 525 172 "/></clipPath><clipPath id="0aaf226418"><path d="M 508.429688 264.226562 L 629.890625 155.902344 L 738.214844 277.363281 L 616.753906 385.691406 Z M 508.429688 264.226562 "/></clipPath><clipPath id="3f36e71074"><path d="M 508.429688 264.226562 L 629.890625 155.902344 L 738.214844 277.363281 L 616.753906 385.691406 Z M 508.429688 264.226562 "/></clipPath><clipPath id="b0db83c9c3"><path d="M 182.953125 81 L 257.953125 81 L 257.953125 156 L 182.953125 156 Z M 182.953125 81 "/></clipPath><clipPath id="e78473d366"><path d="M 284.769531 81 L 359.769531 81 L 359.769531 156 L 284.769531 156 Z M 284.769531 81 "/></clipPath></defs><g id="bdb243eac3"><g transform="matrix(1,0,0,1,0,0.000000000000039746)"><g clip-path="url(#93303f66bb)"><path style=" stroke:none;fill-rule:nonzero;fill:#e6e6e6;fill-opacity:1;" d="M 109.332031 0 C 49.042969 0 0 49.046875 0 109.332031 L 0 700.671875 C 0 760.957031 49.042969 810.003906 109.332031 810.003906 L 700.671875 810.003906 C 760.957031 810.003906 810.003906 760.957031 810.003906 700.671875 L 810.003906 109.332031 C 810.003906 49.046875 760.957031 0 700.671875 0 Z M 109.332031 0 "/><path style=" stroke:none;fill-rule:nonzero;fill:#333333;fill-opacity:1;" d="M 700.671875 32.167969 L 109.332031 32.167969 C 66.714844 32.167969 32.164062 66.714844 32.164062 109.332031 L 32.164062 700.671875 C 32.164062 743.289062 66.714844 777.839844 109.332031 777.839844 L 700.671875 777.839844 C 743.289062 777.839844 777.835938 743.289062 777.835938 700.671875 L 777.835938 109.332031 C 777.835938 66.714844 743.289062 32.167969 700.671875 32.167969 Z M 700.671875 32.167969 "/><path style=" stroke:none;fill-rule:nonzero;fill:#e6e6e6;fill-opacity:1;" d="M 125.082031 525.1875 C 120.570312 525.1875 116.085938 527.074219 112.902344 530.757812 C 107.097656 537.480469 107.839844 547.636719 114.5625 553.441406 L 189.820312 618.4375 L 114.5625 683.429688 C 107.839844 689.238281 107.097656 699.394531 112.902344 706.117188 C 118.710938 712.835938 128.867188 713.582031 135.589844 707.773438 L 224.9375 630.609375 C 228.476562 627.554688 230.511719 623.109375 230.511719 618.4375 C 230.511719 613.761719 228.476562 609.320312 224.9375 606.265625 L 135.589844 529.097656 C 132.546875 526.472656 128.808594 525.1875 125.082031 525.1875 Z M 125.082031 525.1875 "/><path style=" stroke:none;fill-rule:nonzero;fill:#e6e6e6;fill-opacity:1;" d="M 314.835938 525.1875 L 222.238281 525.1875 C 213.355469 525.1875 206.15625 532.386719 206.15625 541.269531 C 206.15625 550.152344 213.355469 557.351562 222.238281 557.351562 L 314.835938 557.351562 C 323.71875 557.351562 330.921875 550.152344 330.921875 541.269531 C 330.921875 532.386719 323.71875 525.1875 314.835938 525.1875 Z M 314.835938 525.1875 "/></g></g><g clip-rule="nonzero" clip-path="url(#54f0fd65ca)"><path style=" stroke:none;fill-rule:nonzero;fill:#333333;fill-opacity:1;" d="M 121.992188 499.421875 L 231.304688 499.421875 C 233.0625 499.421875 234.8125 499.507812 236.5625 499.679688 C 238.308594 499.851562 240.046875 500.109375 241.769531 500.449219 C 243.492188 500.792969 245.195312 501.21875 246.875 501.730469 C 248.554688 502.238281 250.207031 502.832031 251.832031 503.503906 C 253.453125 504.175781 255.039062 504.925781 256.589844 505.753906 C 258.136719 506.582031 259.644531 507.484375 261.101562 508.460938 C 262.5625 509.4375 263.972656 510.480469 265.332031 511.59375 C 266.6875 512.710938 267.988281 513.886719 269.230469 515.128906 C 270.472656 516.371094 271.652344 517.671875 272.765625 519.03125 C 273.878906 520.386719 274.925781 521.796875 275.902344 523.257812 C 276.878906 524.71875 277.78125 526.222656 278.609375 527.773438 C 279.4375 529.320312 280.1875 530.90625 280.859375 532.53125 C 281.53125 534.152344 282.121094 535.804688 282.632812 537.488281 C 283.140625 539.167969 283.566406 540.871094 283.910156 542.59375 C 284.253906 544.316406 284.511719 546.050781 284.683594 547.800781 C 284.855469 549.546875 284.941406 551.300781 284.941406 553.058594 L 284.941406 662.371094 C 284.941406 664.125 284.855469 665.878906 284.683594 667.628906 C 284.511719 669.375 284.253906 671.109375 283.910156 672.835938 C 283.566406 674.558594 283.140625 676.257812 282.632812 677.941406 C 282.121094 679.621094 281.53125 681.273438 280.859375 682.894531 C 280.1875 684.519531 279.4375 686.105469 278.609375 687.652344 C 277.78125 689.203125 276.878906 690.707031 275.902344 692.167969 C 274.925781 693.628906 273.878906 695.039062 272.765625 696.398438 C 271.652344 697.753906 270.472656 699.054688 269.230469 700.296875 C 267.988281 701.539062 266.6875 702.71875 265.332031 703.832031 C 263.972656 704.945312 262.5625 705.992188 261.101562 706.96875 C 259.644531 707.941406 258.136719 708.84375 256.589844 709.671875 C 255.039062 710.5 253.453125 711.25 251.832031 711.921875 C 250.207031 712.597656 248.554688 713.1875 246.875 713.695312 C 245.195312 714.207031 243.492188 714.632812 241.769531 714.976562 C 240.046875 715.320312 238.308594 715.574219 236.5625 715.75 C 234.8125 715.921875 233.0625 716.007812 231.304688 716.007812 L 121.992188 716.007812 C 120.234375 716.007812 118.480469 715.921875 116.734375 715.75 C 114.984375 715.574219 113.25 715.320312 111.527344 714.976562 C 109.804688 714.632812 108.101562 714.207031 106.421875 713.695312 C 104.742188 713.1875 103.089844 712.597656 101.464844 711.921875 C 99.84375 711.25 98.257812 710.5 96.707031 709.671875 C 95.15625 708.84375 93.652344 707.941406 92.191406 706.96875 C 90.730469 705.992188 89.324219 704.945312 87.964844 703.832031 C 86.605469 702.71875 85.308594 701.539062 84.066406 700.296875 C 82.824219 699.054688 81.644531 697.753906 80.53125 696.398438 C 79.414062 695.039062 78.371094 693.628906 77.394531 692.167969 C 76.417969 690.707031 75.515625 689.203125 74.6875 687.652344 C 73.859375 686.105469 73.109375 684.519531 72.4375 682.894531 C 71.765625 681.273438 71.175781 679.621094 70.664062 677.941406 C 70.15625 676.257812 69.726562 674.558594 69.386719 672.835938 C 69.042969 671.109375 68.785156 669.375 68.613281 667.628906 C 68.441406 665.878906 68.355469 664.125 68.355469 662.371094 L 68.355469 553.058594 C 68.355469 551.300781 68.441406 549.546875 68.613281 547.800781 C 68.785156 546.050781 69.042969 544.316406 69.386719 542.59375 C 69.726562 540.871094 70.15625 539.167969 70.664062 537.488281 C 71.175781 535.804688 71.765625 534.152344 72.4375 532.53125 C 73.109375 530.90625 73.859375 529.320312 74.6875 527.773438 C 75.515625 526.222656 76.417969 524.71875 77.394531 523.257812 C 78.371094 521.796875 79.414062 520.386719 80.53125 519.03125 C 81.644531 517.671875 82.824219 516.371094 84.066406 515.128906 C 85.308594 513.886719 86.605469 512.710938 87.964844 511.59375 C 89.324219 510.480469 90.730469 509.4375 92.191406 508.460938 C 93.652344 507.484375 95.15625 506.582031 96.707031 505.753906 C 98.257812 504.925781 99.84375 504.175781 101.464844 503.503906 C 103.089844 502.832031 104.742188 502.238281 106.421875 501.730469 C 108.101562 501.21875 109.804688 500.792969 111.527344 500.449219 C 113.25 500.109375 114.984375 499.851562 116.734375 499.679688 C 118.480469 499.507812 120.234375 499.421875 121.992188 499.421875 Z M 121.992188 499.421875 "/></g><path style=" stroke:none;fill-rule:nonzero;fill:#fcb802;fill-opacity:1;" d="M 490.699219 555.699219 C 491.832031 556.835938 492.90625 558.019531 493.921875 559.257812 C 494.9375 560.5 495.890625 561.785156 496.78125 563.117188 C 497.671875 564.449219 498.496094 565.820312 499.25 567.234375 C 500.007812 568.648438 500.691406 570.09375 501.304688 571.574219 C 501.917969 573.058594 502.457031 574.5625 502.921875 576.097656 C 503.386719 577.632812 503.777344 579.183594 504.089844 580.753906 C 504.402344 582.328125 504.636719 583.910156 504.792969 585.503906 C 504.949219 587.101562 505.027344 588.699219 505.027344 590.300781 C 505.027344 591.90625 504.949219 593.503906 504.792969 595.097656 C 504.636719 596.691406 504.402344 598.277344 504.089844 599.847656 C 503.777344 601.421875 503.386719 602.972656 502.921875 604.507812 C 502.457031 606.039062 501.917969 607.546875 501.304688 609.027344 C 500.691406 610.507812 500.007812 611.957031 499.25 613.367188 C 498.496094 614.78125 497.671875 616.15625 496.78125 617.488281 C 495.890625 618.820312 494.9375 620.105469 493.921875 621.34375 C 492.90625 622.582031 491.832031 623.769531 490.699219 624.902344 C 489.566406 626.035156 488.378906 627.109375 487.140625 628.128906 C 485.902344 629.144531 484.617188 630.097656 483.28125 630.988281 C 481.949219 631.878906 480.578125 632.703125 479.164062 633.457031 C 477.75 634.210938 476.304688 634.898438 474.824219 635.511719 C 473.34375 636.125 471.835938 636.664062 470.300781 637.128906 C 468.769531 637.59375 467.214844 637.980469 465.644531 638.292969 C 464.074219 638.605469 462.488281 638.84375 460.894531 639 C 459.300781 639.15625 457.703125 639.234375 456.097656 639.234375 C 454.496094 639.234375 452.898438 639.15625 451.304688 639 C 449.707031 638.84375 448.125 638.605469 446.554688 638.292969 C 444.980469 637.980469 443.429688 637.59375 441.894531 637.128906 C 440.363281 636.664062 438.855469 636.125 437.375 635.511719 C 435.894531 634.898438 434.445312 634.210938 433.035156 633.457031 C 431.621094 632.703125 430.246094 631.878906 428.914062 630.988281 C 427.582031 630.097656 426.296875 629.144531 425.058594 628.128906 C 423.820312 627.109375 422.632812 626.035156 421.5 624.902344 C 420.367188 623.769531 419.292969 622.582031 418.277344 621.34375 C 417.257812 620.105469 416.304688 618.820312 415.414062 617.488281 C 414.523438 616.15625 413.703125 614.78125 412.945312 613.367188 C 412.191406 611.957031 411.507812 610.507812 410.894531 609.027344 C 410.28125 607.546875 409.742188 606.039062 409.277344 604.507812 C 408.8125 602.972656 408.421875 601.421875 408.109375 599.847656 C 407.796875 598.277344 407.5625 596.691406 407.40625 595.097656 C 407.246094 593.503906 407.167969 591.90625 407.167969 590.300781 C 407.167969 588.699219 407.246094 587.101562 407.40625 585.503906 C 407.5625 583.910156 407.796875 582.328125 408.109375 580.753906 C 408.421875 579.183594 408.8125 577.632812 409.277344 576.097656 C 409.742188 574.5625 410.28125 573.058594 410.894531 571.574219 C 411.507812 570.09375 412.191406 568.648438 412.945312 567.234375 C 413.703125 565.820312 414.523438 564.449219 415.414062 563.117188 C 416.304688 561.785156 417.257812 560.5 418.277344 559.257812 C 419.292969 558.019531 420.367188 556.835938 421.5 555.699219 C 422.632812 554.566406 423.820312 553.492188 425.058594 552.476562 C 426.296875 551.460938 427.582031 550.507812 428.914062 549.617188 C 430.246094 548.726562 431.621094 547.902344 433.035156 547.148438 C 434.445312 546.390625 435.894531 545.707031 437.375 545.09375 C 438.855469 544.480469 440.363281 543.941406 441.894531 543.476562 C 443.429688 543.011719 444.980469 542.621094 446.554688 542.308594 C 448.125 541.996094 449.707031 541.761719 451.304688 541.605469 C 452.898438 541.449219 454.496094 541.367188 456.097656 541.367188 C 457.703125 541.367188 459.300781 541.449219 460.894531 541.605469 C 462.488281 541.761719 464.074219 541.996094 465.644531 542.308594 C 467.214844 542.621094 468.769531 543.011719 470.300781 543.476562 C 471.835938 543.941406 473.34375 544.480469 474.824219 545.09375 C 476.304688 545.707031 477.75 546.390625 479.164062 547.148438 C 480.578125 547.902344 481.949219 548.726562 483.28125 549.617188 C 484.617188 550.507812 485.902344 551.460938 487.140625 552.476562 C 488.378906 553.492188 489.566406 554.566406 490.699219 555.699219 Z M 490.699219 555.699219 "/><path style=" stroke:none;fill-rule:nonzero;fill:#fdd406;fill-opacity:1;" d="M 473.417969 238.164062 C 474.292969 239.039062 475.125 239.957031 475.910156 240.914062 C 476.695312 241.871094 477.433594 242.867188 478.121094 243.894531 C 478.808594 244.925781 479.445312 245.988281 480.03125 247.082031 C 480.613281 248.171875 481.144531 249.292969 481.617188 250.4375 C 482.089844 251.582031 482.507812 252.746094 482.867188 253.933594 C 483.226562 255.117188 483.527344 256.316406 483.769531 257.535156 C 484.011719 258.75 484.191406 259.972656 484.316406 261.207031 C 484.4375 262.4375 484.496094 263.675781 484.496094 264.914062 C 484.496094 266.152344 484.4375 267.390625 484.316406 268.621094 C 484.191406 269.855469 484.011719 271.078125 483.769531 272.292969 C 483.527344 273.511719 483.226562 274.710938 482.867188 275.894531 C 482.507812 277.082031 482.089844 278.246094 481.617188 279.390625 C 481.144531 280.535156 480.613281 281.65625 480.03125 282.75 C 479.445312 283.839844 478.808594 284.902344 478.121094 285.933594 C 477.433594 286.960938 476.695312 287.957031 475.910156 288.914062 C 475.125 289.871094 474.292969 290.789062 473.417969 291.664062 C 472.539062 292.542969 471.625 293.371094 470.664062 294.160156 C 469.707031 294.945312 468.714844 295.683594 467.683594 296.371094 C 466.652344 297.058594 465.59375 297.695312 464.5 298.277344 C 463.40625 298.863281 462.289062 299.390625 461.144531 299.867188 C 460 300.339844 458.835938 300.757812 457.648438 301.117188 C 456.464844 301.476562 455.261719 301.777344 454.046875 302.019531 C 452.832031 302.261719 451.609375 302.441406 450.375 302.5625 C 449.140625 302.683594 447.90625 302.746094 446.667969 302.746094 C 445.429688 302.746094 444.191406 302.683594 442.960938 302.5625 C 441.726562 302.441406 440.503906 302.261719 439.285156 302.019531 C 438.070312 301.777344 436.871094 301.476562 435.6875 301.117188 C 434.5 300.757812 433.335938 300.339844 432.191406 299.867188 C 431.046875 299.390625 429.925781 298.863281 428.835938 298.277344 C 427.742188 297.695312 426.679688 297.058594 425.648438 296.371094 C 424.621094 295.683594 423.625 294.945312 422.667969 294.160156 C 421.710938 293.371094 420.792969 292.542969 419.917969 291.664062 C 419.042969 290.789062 418.210938 289.871094 417.425781 288.914062 C 416.636719 287.957031 415.902344 286.960938 415.214844 285.933594 C 414.523438 284.902344 413.886719 283.839844 413.304688 282.75 C 412.71875 281.65625 412.191406 280.535156 411.71875 279.390625 C 411.242188 278.246094 410.828125 277.082031 410.464844 275.894531 C 410.105469 274.710938 409.804688 273.511719 409.566406 272.292969 C 409.324219 271.078125 409.140625 269.855469 409.019531 268.621094 C 408.898438 267.390625 408.835938 266.152344 408.835938 264.914062 C 408.835938 263.675781 408.898438 262.4375 409.019531 261.207031 C 409.140625 259.972656 409.324219 258.75 409.566406 257.535156 C 409.804688 256.316406 410.105469 255.117188 410.464844 253.933594 C 410.828125 252.746094 411.242188 251.582031 411.71875 250.4375 C 412.191406 249.292969 412.71875 248.171875 413.304688 247.082031 C 413.886719 245.988281 414.523438 244.925781 415.214844 243.894531 C 415.902344 242.867188 416.636719 241.871094 417.425781 240.914062 C 418.210938 239.957031 419.042969 239.039062 419.917969 238.164062 C 420.792969 237.285156 421.710938 236.457031 422.667969 235.667969 C 423.625 234.882812 424.621094 234.144531 425.648438 233.457031 C 426.679688 232.769531 427.742188 232.132812 428.835938 231.550781 C 429.925781 230.964844 431.046875 230.4375 432.191406 229.960938 C 433.335938 229.488281 434.5 229.070312 435.6875 228.710938 C 436.871094 228.351562 438.070312 228.050781 439.285156 227.808594 C 440.503906 227.566406 441.726562 227.386719 442.960938 227.265625 C 444.191406 227.144531 445.429688 227.082031 446.667969 227.082031 C 447.90625 227.082031 449.140625 227.144531 450.375 227.265625 C 451.609375 227.386719 452.832031 227.566406 454.046875 227.808594 C 455.261719 228.050781 456.464844 228.351562 457.648438 228.710938 C 458.835938 229.070312 460 229.488281 461.144531 229.960938 C 462.289062 230.4375 463.40625 230.964844 464.5 231.550781 C 465.59375 232.132812 466.652344 232.769531 467.683594 233.457031 C 468.714844 234.144531 469.707031 234.882812 470.667969 235.667969 C 471.625 236.457031 472.539062 237.285156 473.417969 238.164062 Z M 473.417969 238.164062 "/><path style=" stroke:none;fill-rule:nonzero;fill:#fdd406;fill-opacity:1;" d="M 574.59375 563.339844 C 574.359375 564.8125 574.070312 566.253906 573.710938 567.675781 C 573.339844 569.152344 572.902344 570.605469 572.398438 572.042969 C 571.890625 573.476562 571.320312 574.886719 570.683594 576.265625 C 570.046875 577.648438 569.351562 579 568.589844 580.316406 C 567.828125 581.632812 567.007812 582.914062 566.128906 584.152344 C 565.25 585.394531 564.316406 586.59375 563.324219 587.75 C 562.332031 588.902344 561.292969 590.007812 560.199219 591.066406 C 559.105469 592.125 557.96875 593.132812 556.78125 594.085938 C 555.59375 595.039062 554.367188 595.933594 553.097656 596.773438 C 551.832031 597.613281 550.523438 598.390625 549.183594 599.109375 C 547.84375 599.828125 546.472656 600.480469 545.070312 601.074219 C 543.667969 601.664062 542.242188 602.191406 540.792969 602.648438 C 539.34375 603.109375 537.875 603.5 536.386719 603.824219 C 534.902344 604.144531 533.402344 604.398438 531.890625 604.582031 C 530.382812 604.769531 528.867188 604.882812 527.347656 604.925781 C 525.824219 604.972656 524.304688 604.945312 522.789062 604.847656 C 521.269531 604.75 519.761719 604.585938 518.257812 604.347656 L 274.238281 565.925781 C 272.738281 565.691406 271.25 565.386719 269.773438 565.011719 C 268.300781 564.636719 266.84375 564.195312 265.410156 563.6875 C 263.976562 563.175781 262.570312 562.601562 261.1875 561.964844 C 259.808594 561.324219 258.460938 560.625 257.144531 559.859375 C 255.828125 559.09375 254.550781 558.269531 253.3125 557.386719 C 252.074219 556.507812 250.878906 555.566406 249.726562 554.574219 C 248.574219 553.582031 247.46875 552.535156 246.414062 551.441406 C 245.359375 550.34375 244.355469 549.203125 243.40625 548.015625 C 242.457031 546.824219 241.5625 545.59375 240.726562 544.324219 C 239.890625 543.050781 239.117188 541.746094 238.402344 540.402344 C 237.6875 539.058594 237.039062 537.683594 236.449219 536.28125 C 235.863281 534.878906 235.34375 533.449219 234.886719 531.996094 C 234.433594 530.546875 234.046875 529.078125 233.726562 527.589844 C 233.40625 526.101562 233.160156 524.601562 232.980469 523.089844 C 232.800781 521.578125 232.691406 520.0625 232.648438 518.542969 C 232.609375 517.023438 232.640625 515.503906 232.742188 513.984375 C 232.84375 512.527344 233.003906 511.058594 233.234375 509.589844 C 234.078125 504.183594 235.78125 499.058594 238.339844 494.222656 C 240.492188 490.132812 243.171875 486.429688 246.382812 483.105469 C 249.714844 479.644531 253.476562 476.730469 257.660156 474.367188 C 261.777344 472.039062 265.546875 469.238281 268.960938 465.96875 C 272.378906 462.695312 275.335938 459.050781 277.839844 455.035156 C 281.765625 448.71875 284.3125 441.882812 285.472656 434.53125 L 295.1875 372.800781 C 306.601562 300.320312 374.585938 250.804688 447.085938 262.21875 C 519.566406 273.636719 569.066406 341.652344 557.652344 414.132812 L 547.9375 475.863281 C 546.78125 483.214844 547.101562 490.5 548.898438 497.722656 C 550.046875 502.3125 551.742188 506.6875 553.984375 510.851562 C 556.230469 515.011719 558.957031 518.832031 562.160156 522.3125 C 565.414062 525.851562 568.097656 529.78125 570.207031 534.101562 C 571.304688 536.34375 572.222656 538.660156 572.964844 541.042969 C 573.59375 543.046875 574.089844 545.082031 574.449219 547.152344 C 575.398438 552.539062 575.449219 557.9375 574.59375 563.339844 Z M 574.59375 563.339844 "/><path style=" stroke:none;fill-rule:nonzero;fill:#fee847;fill-opacity:1;" d="M 487.386719 536.628906 C 486.929688 536.628906 486.472656 536.59375 486.023438 536.519531 L 423.59375 526.6875 C 423.023438 526.609375 422.464844 526.476562 421.917969 526.285156 C 421.371094 526.09375 420.851562 525.851562 420.355469 525.558594 C 419.855469 525.261719 419.394531 524.921875 418.964844 524.535156 C 418.535156 524.148438 418.148438 523.722656 417.804688 523.261719 C 417.460938 522.796875 417.164062 522.304688 416.917969 521.78125 C 416.671875 521.257812 416.480469 520.71875 416.34375 520.15625 C 416.203125 519.59375 416.125 519.027344 416.097656 518.449219 C 416.074219 517.871094 416.105469 517.296875 416.195312 516.726562 C 416.285156 516.15625 416.429688 515.601562 416.632812 515.058594 C 416.832031 514.515625 417.085938 514 417.386719 513.507812 C 417.691406 513.019531 418.039062 512.5625 418.4375 512.140625 C 418.832031 511.71875 419.261719 511.339844 419.734375 511.003906 C 420.203125 510.667969 420.703125 510.382812 421.230469 510.144531 C 421.753906 509.910156 422.300781 509.726562 422.863281 509.601562 C 423.425781 509.472656 424 509.402344 424.574219 509.386719 C 425.152344 509.375 425.726562 509.417969 426.292969 509.519531 L 488.726562 519.347656 C 489.261719 519.433594 489.785156 519.566406 490.296875 519.746094 C 490.808594 519.929688 491.296875 520.15625 491.765625 520.429688 C 492.234375 520.703125 492.675781 521.019531 493.082031 521.375 C 493.492188 521.730469 493.867188 522.121094 494.203125 522.546875 C 494.539062 522.972656 494.832031 523.425781 495.085938 523.90625 C 495.335938 524.386719 495.542969 524.886719 495.699219 525.402344 C 495.855469 525.921875 495.964844 526.453125 496.023438 526.992188 C 496.082031 527.53125 496.09375 528.070312 496.050781 528.609375 C 496.007812 529.152344 495.917969 529.683594 495.773438 530.207031 C 495.632812 530.730469 495.445312 531.238281 495.207031 531.726562 C 494.972656 532.214844 494.691406 532.675781 494.371094 533.109375 C 494.046875 533.546875 493.6875 533.949219 493.289062 534.316406 C 492.890625 534.6875 492.460938 535.015625 492 535.300781 C 491.542969 535.589844 491.058594 535.832031 490.554688 536.03125 C 490.050781 536.230469 489.53125 536.378906 489 536.480469 C 488.464844 536.578125 487.925781 536.628906 487.386719 536.628906 Z M 487.386719 536.628906 "/><path style=" stroke:none;fill-rule:nonzero;fill:#fee847;fill-opacity:1;" d="M 526.964844 543.066406 C 526.507812 543.066406 526.054688 543.03125 525.601562 542.960938 L 515.195312 541.320312 C 514.625 541.242188 514.066406 541.105469 513.523438 540.914062 C 512.980469 540.722656 512.460938 540.476562 511.964844 540.183594 C 511.46875 539.886719 511.007812 539.546875 510.578125 539.160156 C 510.152344 538.773438 509.765625 538.347656 509.421875 537.886719 C 509.082031 537.421875 508.785156 536.929688 508.542969 536.40625 C 508.296875 535.886719 508.105469 535.34375 507.96875 534.785156 C 507.832031 534.222656 507.75 533.65625 507.726562 533.078125 C 507.703125 532.503906 507.734375 531.929688 507.824219 531.359375 C 507.914062 530.789062 508.058594 530.234375 508.257812 529.695312 C 508.460938 529.152344 508.710938 528.636719 509.015625 528.148438 C 509.316406 527.65625 509.664062 527.199219 510.058594 526.78125 C 510.453125 526.359375 510.882812 525.980469 511.351562 525.644531 C 511.820312 525.308594 512.320312 525.023438 512.84375 524.785156 C 513.371094 524.550781 513.914062 524.367188 514.476562 524.238281 C 515.039062 524.109375 515.609375 524.039062 516.183594 524.023438 C 516.761719 524.007812 517.332031 524.050781 517.902344 524.148438 L 528.285156 525.773438 C 528.824219 525.855469 529.351562 525.984375 529.867188 526.164062 C 530.382812 526.34375 530.875 526.566406 531.347656 526.839844 C 531.820312 527.109375 532.261719 527.425781 532.675781 527.777344 C 533.089844 528.132812 533.464844 528.523438 533.804688 528.949219 C 534.144531 529.375 534.441406 529.828125 534.695312 530.3125 C 534.953125 530.792969 535.160156 531.292969 535.320312 531.816406 C 535.480469 532.335938 535.589844 532.867188 535.652344 533.410156 C 535.710938 533.949219 535.71875 534.492188 535.679688 535.035156 C 535.636719 535.578125 535.546875 536.113281 535.402344 536.640625 C 535.261719 537.164062 535.070312 537.675781 534.832031 538.164062 C 534.597656 538.65625 534.316406 539.117188 533.992188 539.554688 C 533.664062 539.992188 533.300781 540.398438 532.902344 540.765625 C 532.5 541.136719 532.070312 541.464844 531.605469 541.75 C 531.144531 542.039062 530.660156 542.28125 530.152344 542.480469 C 529.644531 542.675781 529.121094 542.824219 528.585938 542.921875 C 528.050781 543.019531 527.507812 543.070312 526.964844 543.066406 Z M 526.964844 543.066406 "/><path style=" stroke:none;fill-rule:nonzero;fill:#fee847;fill-opacity:1;" d="M 340.089844 353.21875 C 340.507812 353.796875 340.867188 354.410156 341.164062 355.0625 C 341.464844 355.710938 341.695312 356.382812 341.859375 357.078125 C 342.027344 357.769531 342.121094 358.476562 342.148438 359.1875 C 342.175781 359.902344 342.132812 360.613281 342.019531 361.316406 C 341.90625 362.023438 341.726562 362.710938 341.476562 363.378906 C 341.230469 364.046875 340.917969 364.6875 340.542969 365.296875 C 340.167969 365.902344 339.738281 366.46875 339.253906 366.992188 C 338.769531 367.515625 338.238281 367.988281 337.65625 368.40625 C 337.078125 368.824219 336.464844 369.183594 335.816406 369.480469 C 335.167969 369.78125 334.496094 370.011719 333.800781 370.175781 C 333.105469 370.34375 332.402344 370.4375 331.6875 370.464844 C 330.976562 370.492188 330.265625 370.449219 329.5625 370.335938 C 328.855469 370.222656 328.167969 370.042969 327.5 369.792969 C 326.828125 369.546875 326.191406 369.234375 325.582031 368.859375 C 324.972656 368.484375 324.40625 368.054688 323.882812 367.570312 C 323.359375 367.085938 322.890625 366.554688 322.472656 365.972656 C 322.050781 365.394531 321.695312 364.78125 321.394531 364.132812 C 321.097656 363.484375 320.867188 362.8125 320.703125 362.117188 C 320.535156 361.421875 320.441406 360.71875 320.414062 360.003906 C 320.386719 359.292969 320.429688 358.582031 320.542969 357.875 C 320.65625 357.171875 320.835938 356.484375 321.085938 355.816406 C 321.332031 355.144531 321.644531 354.507812 322.019531 353.898438 C 322.390625 353.289062 322.820312 352.722656 323.308594 352.199219 C 323.792969 351.675781 324.324219 351.207031 324.902344 350.785156 C 325.480469 350.367188 326.097656 350.007812 326.746094 349.710938 C 327.394531 349.414062 328.066406 349.183594 328.761719 349.015625 C 329.453125 348.851562 330.160156 348.753906 330.871094 348.726562 C 331.585938 348.703125 332.296875 348.746094 333 348.855469 C 333.707031 348.96875 334.394531 349.152344 335.0625 349.398438 C 335.730469 349.648438 336.371094 349.957031 336.980469 350.332031 C 337.585938 350.707031 338.152344 351.136719 338.675781 351.621094 C 339.199219 352.109375 339.671875 352.640625 340.089844 353.21875 Z M 340.089844 353.21875 "/><path style=" stroke:none;fill-rule:nonzero;fill:#fee847;fill-opacity:1;" d="M 344.0625 341.421875 C 343.300781 341.421875 342.550781 341.324219 341.8125 341.125 C 341.074219 340.925781 340.375 340.636719 339.710938 340.253906 C 339.050781 339.871094 338.449219 339.410156 337.910156 338.871094 C 337.367188 338.328125 336.90625 337.730469 336.527344 337.066406 C 336.144531 336.40625 335.855469 335.703125 335.660156 334.964844 C 335.460938 334.226562 335.363281 333.476562 335.363281 332.710938 C 335.367188 331.949219 335.464844 331.199219 335.664062 330.460938 C 335.863281 329.722656 336.152344 329.023438 336.539062 328.359375 C 337.121094 327.347656 351.238281 303.363281 384.9375 287.265625 C 385.457031 287.003906 385.992188 286.792969 386.550781 286.640625 C 387.109375 286.484375 387.675781 286.386719 388.253906 286.347656 C 388.832031 286.308594 389.40625 286.324219 389.980469 286.398438 C 390.554688 286.472656 391.117188 286.601562 391.664062 286.789062 C 392.210938 286.976562 392.734375 287.214844 393.234375 287.503906 C 393.738281 287.796875 394.203125 288.132812 394.636719 288.519531 C 395.070312 288.902344 395.457031 289.328125 395.808594 289.789062 C 396.15625 290.253906 396.453125 290.746094 396.703125 291.265625 C 396.953125 291.789062 397.148438 292.332031 397.289062 292.890625 C 397.429688 293.453125 397.515625 294.023438 397.542969 294.601562 C 397.570312 295.179688 397.539062 295.753906 397.453125 296.328125 C 397.367188 296.898438 397.222656 297.457031 397.023438 298 C 396.824219 298.542969 396.574219 299.0625 396.269531 299.554688 C 395.96875 300.050781 395.617188 300.507812 395.226562 300.933594 C 394.832031 301.355469 394.398438 301.738281 393.925781 302.074219 C 393.457031 302.410156 392.957031 302.699219 392.429688 302.9375 C 363.863281 316.585938 351.6875 336.867188 351.574219 337.070312 C 351.195312 337.730469 350.738281 338.332031 350.199219 338.871094 C 349.664062 339.410156 349.066406 339.871094 348.40625 340.253906 C 347.746094 340.636719 347.046875 340.925781 346.3125 341.125 C 345.574219 341.324219 344.828125 341.421875 344.0625 341.421875 Z M 344.0625 341.421875 "/><path style=" stroke:none;fill-rule:nonzero;fill:#fcb802;fill-opacity:1;" d="M 573.730469 567.675781 C 573.359375 569.152344 572.921875 570.605469 572.417969 572.042969 C 571.910156 573.476562 571.339844 574.886719 570.707031 576.265625 C 570.070312 577.648438 569.371094 579 568.609375 580.316406 C 567.847656 581.632812 567.027344 582.914062 566.148438 584.152344 C 565.269531 585.394531 564.335938 586.59375 563.34375 587.75 C 562.355469 588.902344 561.3125 590.007812 560.21875 591.066406 C 559.128906 592.125 557.988281 593.132812 556.800781 594.085938 C 555.617188 595.039062 554.390625 595.933594 553.121094 596.773438 C 551.851562 597.613281 550.546875 598.390625 549.207031 599.109375 C 547.863281 599.828125 546.492188 600.480469 545.089844 601.074219 C 543.691406 601.664062 542.261719 602.191406 540.8125 602.648438 C 539.363281 603.109375 537.894531 603.5 536.40625 603.824219 C 534.921875 604.144531 533.421875 604.398438 531.914062 604.582031 C 530.402344 604.769531 528.886719 604.882812 527.367188 604.925781 C 525.847656 604.972656 524.328125 604.945312 522.808594 604.847656 C 521.292969 604.75 519.78125 604.585938 518.277344 604.347656 L 274.238281 565.925781 C 272.738281 565.691406 271.25 565.386719 269.773438 565.011719 C 268.300781 564.636719 266.84375 564.195312 265.410156 563.6875 C 263.976562 563.175781 262.570312 562.601562 261.1875 561.964844 C 259.808594 561.324219 258.460938 560.625 257.144531 559.859375 C 255.828125 559.09375 254.550781 558.269531 253.3125 557.386719 C 252.074219 556.507812 250.878906 555.566406 249.726562 554.574219 C 248.574219 553.582031 247.46875 552.535156 246.414062 551.441406 C 245.359375 550.34375 244.355469 549.203125 243.40625 548.015625 C 242.457031 546.824219 241.5625 545.59375 240.726562 544.324219 C 239.890625 543.050781 239.117188 541.746094 238.402344 540.402344 C 237.6875 539.058594 237.039062 537.683594 236.449219 536.28125 C 235.863281 534.878906 235.34375 533.449219 234.886719 531.996094 C 234.433594 530.546875 234.046875 529.078125 233.726562 527.589844 C 233.40625 526.101562 233.160156 524.601562 232.980469 523.089844 C 232.800781 521.578125 232.691406 520.0625 232.648438 518.542969 C 232.609375 517.023438 232.640625 515.503906 232.742188 513.984375 Z M 573.730469 567.675781 "/><path style=" stroke:none;fill-rule:nonzero;fill:#fee847;fill-opacity:1;" d="M 319.625 279.359375 L 319.625 279.28125 L 302.777344 274.988281 C 303.039062 273.941406 309.542969 249.621094 337.339844 243.863281 C 337.90625 243.734375 338.476562 243.660156 339.054688 243.644531 C 339.632812 243.628906 340.207031 243.671875 340.777344 243.769531 C 341.347656 243.867188 341.902344 244.023438 342.445312 244.234375 C 342.984375 244.441406 343.496094 244.703125 343.984375 245.015625 C 344.472656 245.328125 344.921875 245.6875 345.339844 246.089844 C 345.753906 246.492188 346.125 246.929688 346.453125 247.40625 C 346.78125 247.886719 347.058594 248.390625 347.285156 248.921875 C 347.515625 249.453125 347.6875 250.003906 347.804688 250.570312 C 347.921875 251.136719 347.980469 251.710938 347.984375 252.289062 C 347.988281 252.867188 347.933594 253.441406 347.820312 254.007812 C 347.710938 254.578125 347.542969 255.128906 347.320312 255.664062 C 347.101562 256.199219 346.828125 256.707031 346.503906 257.1875 C 346.179688 257.667969 345.8125 258.109375 345.402344 258.515625 C 344.992188 258.921875 344.542969 259.285156 344.058594 259.601562 C 343.574219 259.921875 343.066406 260.1875 342.527344 260.402344 C 341.988281 260.617188 341.4375 260.777344 340.867188 260.882812 C 323.9375 264.394531 319.789062 278.734375 319.625 279.359375 Z M 319.625 279.359375 "/><g clip-rule="nonzero" clip-path="url(#11f5660257)"><path style=" stroke:none;fill-rule:nonzero;fill:#fee847;fill-opacity:1;" d="M 272.230469 283.246094 C 271.890625 283.246094 271.550781 283.226562 271.210938 283.1875 C 270.875 283.148438 270.539062 283.089844 270.207031 283.011719 C 269.878906 282.929688 269.550781 282.832031 269.234375 282.714844 C 268.914062 282.597656 268.601562 282.464844 268.296875 282.308594 C 267.996094 282.15625 267.703125 281.984375 267.417969 281.796875 C 267.136719 281.609375 266.863281 281.40625 266.605469 281.183594 C 266.34375 280.964844 266.097656 280.730469 265.867188 280.480469 C 265.636719 280.234375 265.417969 279.972656 265.21875 279.695312 C 265.015625 279.421875 264.832031 279.136719 264.664062 278.839844 C 264.496094 278.546875 264.347656 278.242188 264.214844 277.925781 C 264.082031 277.613281 263.96875 277.292969 263.875 276.964844 C 263.78125 276.640625 263.707031 276.308594 263.652344 275.972656 C 263.597656 275.636719 263.558594 275.300781 263.542969 274.960938 C 263.527344 274.621094 263.535156 274.28125 263.558594 273.941406 C 263.582031 273.601562 263.625 273.265625 263.691406 272.929688 C 263.753906 272.597656 263.835938 272.265625 263.9375 271.941406 C 264.117188 271.382812 268.390625 258.058594 279.835938 243.152344 C 283.53125 238.300781 287.617188 233.800781 292.09375 229.65625 C 296.570312 225.511719 301.367188 221.78125 306.488281 218.46875 C 311.609375 215.152344 316.980469 212.304688 322.59375 209.917969 C 328.207031 207.535156 333.984375 205.648438 339.925781 204.265625 C 340.488281 204.121094 341.054688 204.035156 341.632812 204.003906 C 342.210938 203.972656 342.785156 204 343.355469 204.085938 C 343.925781 204.167969 344.484375 204.308594 345.027344 204.503906 C 345.574219 204.699219 346.09375 204.945312 346.585938 205.242188 C 347.082031 205.542969 347.542969 205.886719 347.96875 206.277344 C 348.394531 206.667969 348.777344 207.097656 349.117188 207.5625 C 349.457031 208.03125 349.746094 208.527344 349.988281 209.050781 C 350.230469 209.578125 350.417969 210.121094 350.550781 210.683594 C 350.683594 211.246094 350.761719 211.816406 350.78125 212.394531 C 350.800781 212.972656 350.761719 213.542969 350.667969 214.113281 C 350.570312 214.683594 350.421875 215.238281 350.214844 215.78125 C 350.007812 216.320312 349.753906 216.832031 349.445312 217.324219 C 349.136719 217.8125 348.78125 218.265625 348.382812 218.683594 C 347.984375 219.101562 347.546875 219.476562 347.074219 219.808594 C 346.601562 220.136719 346.101562 220.417969 345.570312 220.652344 C 345.039062 220.882812 344.492188 221.058594 343.929688 221.179688 C 323.640625 225.980469 306.839844 236.769531 294.015625 253.242188 C 284.253906 265.777344 280.546875 277.09375 280.507812 277.207031 C 280.226562 278.085938 279.816406 278.894531 279.277344 279.640625 C 278.738281 280.386719 278.09375 281.03125 277.351562 281.574219 C 276.605469 282.117188 275.796875 282.53125 274.921875 282.816406 C 274.046875 283.101562 273.148438 283.246094 272.230469 283.246094 Z M 272.230469 283.246094 "/></g><path style=" stroke:none;fill-rule:nonzero;fill:#fee847;fill-opacity:1;" d="M 584.664062 324.230469 L 567.375 322.453125 L 567.375 322.535156 C 567.425781 321.902344 568.476562 307 553.792969 297.863281 C 553.292969 297.570312 552.828125 297.226562 552.398438 296.839844 C 551.96875 296.453125 551.582031 296.027344 551.234375 295.5625 C 550.890625 295.097656 550.59375 294.605469 550.347656 294.082031 C 550.101562 293.554688 549.90625 293.011719 549.769531 292.449219 C 549.632812 291.886719 549.550781 291.316406 549.527344 290.738281 C 549.503906 290.160156 549.535156 289.585938 549.625 289.011719 C 549.71875 288.441406 549.863281 287.882812 550.066406 287.339844 C 550.269531 286.796875 550.523438 286.28125 550.828125 285.789062 C 551.132812 285.296875 551.484375 284.839844 551.882812 284.417969 C 552.277344 283.996094 552.714844 283.617188 553.1875 283.285156 C 553.660156 282.949219 554.160156 282.664062 554.6875 282.429688 C 555.21875 282.195312 555.765625 282.015625 556.332031 281.890625 C 556.898438 281.765625 557.46875 281.695312 558.046875 281.6875 C 558.625 281.675781 559.199219 281.722656 559.769531 281.824219 C 560.339844 281.929688 560.894531 282.089844 561.433594 282.304688 C 561.96875 282.519531 562.480469 282.785156 562.964844 283.101562 C 587.0625 298.089844 584.773438 323.167969 584.664062 324.230469 Z M 584.664062 324.230469 "/><path style=" stroke:none;fill-rule:nonzero;fill:#fee847;fill-opacity:1;" d="M 613.984375 339.167969 C 613.847656 339.167969 613.707031 339.167969 613.574219 339.167969 C 613.003906 339.144531 612.441406 339.0625 611.890625 338.925781 C 611.335938 338.789062 610.800781 338.597656 610.285156 338.355469 C 609.769531 338.113281 609.28125 337.824219 608.824219 337.488281 C 608.367188 337.148438 607.945312 336.769531 607.558594 336.347656 C 607.175781 335.929688 606.835938 335.472656 606.539062 334.988281 C 606.246094 334.5 606 333.988281 605.808594 333.453125 C 605.613281 332.917969 605.472656 332.367188 605.386719 331.804688 C 605.300781 331.242188 605.269531 330.675781 605.292969 330.105469 C 605.292969 329.851562 605.691406 317.996094 600.875 302.941406 C 594.5 283.058594 582.457031 267.148438 565.066406 255.644531 C 564.589844 255.328125 564.152344 254.96875 563.746094 254.570312 C 563.34375 254.167969 562.980469 253.730469 562.660156 253.257812 C 562.34375 252.785156 562.074219 252.285156 561.855469 251.757812 C 561.632812 251.234375 561.464844 250.691406 561.351562 250.132812 C 561.238281 249.574219 561.179688 249.007812 561.179688 248.4375 C 561.175781 247.867188 561.230469 247.304688 561.339844 246.746094 C 561.445312 246.183594 561.609375 245.640625 561.824219 245.113281 C 562.039062 244.585938 562.304688 244.082031 562.621094 243.609375 C 562.933594 243.132812 563.292969 242.691406 563.695312 242.289062 C 564.09375 241.882812 564.53125 241.519531 565.003906 241.199219 C 565.476562 240.882812 565.976562 240.613281 566.5 240.390625 C 567.027344 240.171875 567.566406 240.003906 568.125 239.886719 C 568.683594 239.773438 569.25 239.714844 569.820312 239.710938 C 570.390625 239.707031 570.953125 239.761719 571.515625 239.867188 C 572.074219 239.976562 572.617188 240.136719 573.144531 240.355469 C 573.671875 240.570312 574.175781 240.832031 574.652344 241.148438 C 579.75 244.496094 584.527344 248.257812 588.976562 252.429688 C 593.425781 256.605469 597.480469 261.132812 601.148438 266.007812 C 604.8125 270.886719 608.03125 276.042969 610.804688 281.476562 C 613.574219 286.914062 615.859375 292.546875 617.65625 298.375 C 623.269531 316.308594 622.6875 330.292969 622.65625 330.878906 C 622.632812 331.433594 622.554688 331.976562 622.425781 332.515625 C 622.296875 333.054688 622.117188 333.574219 621.886719 334.078125 C 621.660156 334.582031 621.382812 335.0625 621.0625 335.511719 C 620.742188 335.964844 620.382812 336.378906 619.984375 336.761719 C 619.582031 337.144531 619.148438 337.488281 618.683594 337.785156 C 618.21875 338.085938 617.730469 338.339844 617.214844 338.546875 C 616.703125 338.75 616.175781 338.90625 615.628906 339.011719 C 615.085938 339.117188 614.539062 339.167969 613.984375 339.167969 Z M 613.984375 339.167969 "/><g clip-rule="nonzero" clip-path="url(#e51eb375c4)"><g clip-rule="nonzero" clip-path="url(#c3c8ab4cc6)"><g clip-rule="nonzero" clip-path="url(#d778029141)"><path style=" stroke:none;fill-rule:nonzero;fill:#333333;fill-opacity:1;" d="M 200.066406 185.808594 L 261.417969 131.09375 C 262.402344 130.214844 263.429688 129.386719 264.5 128.605469 C 265.566406 127.828125 266.667969 127.105469 267.808594 126.433594 C 268.945312 125.765625 270.113281 125.152344 271.3125 124.597656 C 272.511719 124.042969 273.734375 123.546875 274.980469 123.109375 C 276.230469 122.675781 277.496094 122.304688 278.777344 121.992188 C 280.0625 121.683594 281.359375 121.433594 282.667969 121.25 C 283.976562 121.066406 285.289062 120.949219 286.609375 120.894531 C 287.929688 120.839844 289.25 120.851562 290.566406 120.925781 C 291.886719 121.003906 293.199219 121.140625 294.503906 121.347656 C 295.808594 121.550781 297.101562 121.820312 298.378906 122.148438 C 299.660156 122.480469 300.917969 122.875 302.160156 123.328125 C 303.398438 123.785156 304.613281 124.300781 305.804688 124.875 C 306.992188 125.449219 308.152344 126.078125 309.277344 126.765625 C 310.40625 127.457031 311.496094 128.199219 312.550781 128.992188 C 313.609375 129.789062 314.621094 130.632812 315.59375 131.527344 C 316.5625 132.421875 317.488281 133.363281 318.367188 134.351562 L 373.085938 195.703125 C 373.964844 196.6875 374.792969 197.714844 375.570312 198.78125 C 376.351562 199.851562 377.074219 200.953125 377.742188 202.089844 C 378.414062 203.230469 379.027344 204.398438 379.582031 205.597656 C 380.136719 206.796875 380.632812 208.019531 381.066406 209.265625 C 381.503906 210.511719 381.875 211.777344 382.1875 213.0625 C 382.496094 214.347656 382.742188 215.644531 382.925781 216.953125 C 383.109375 218.261719 383.230469 219.574219 383.285156 220.894531 C 383.335938 222.214844 383.328125 223.535156 383.25 224.851562 C 383.175781 226.171875 383.035156 227.484375 382.832031 228.789062 C 382.628906 230.09375 382.359375 231.386719 382.027344 232.664062 C 381.699219 233.941406 381.304688 235.203125 380.847656 236.441406 C 380.394531 237.683594 379.878906 238.898438 379.304688 240.085938 C 378.730469 241.277344 378.097656 242.4375 377.410156 243.5625 C 376.722656 244.691406 375.980469 245.78125 375.183594 246.835938 C 374.390625 247.890625 373.542969 248.90625 372.648438 249.875 C 371.753906 250.847656 370.816406 251.773438 369.828125 252.652344 L 308.476562 307.371094 C 307.488281 308.25 306.464844 309.078125 305.394531 309.855469 C 304.328125 310.632812 303.226562 311.359375 302.085938 312.027344 C 300.949219 312.699219 299.78125 313.3125 298.582031 313.867188 C 297.382812 314.421875 296.160156 314.917969 294.914062 315.351562 C 293.664062 315.785156 292.398438 316.160156 291.113281 316.46875 C 289.832031 316.78125 288.535156 317.027344 287.226562 317.210938 C 285.917969 317.394531 284.605469 317.511719 283.285156 317.566406 C 281.964844 317.621094 280.644531 317.609375 279.328125 317.535156 C 278.007812 317.460938 276.695312 317.320312 275.390625 317.117188 C 274.085938 316.910156 272.792969 316.644531 271.515625 316.3125 C 270.234375 315.980469 268.976562 315.589844 267.734375 315.132812 C 266.496094 314.679688 265.28125 314.164062 264.089844 313.589844 C 262.902344 313.015625 261.742188 312.382812 260.613281 311.695312 C 259.488281 311.007812 258.394531 310.265625 257.339844 309.46875 C 256.285156 308.675781 255.273438 307.828125 254.300781 306.933594 C 253.328125 306.039062 252.40625 305.097656 251.523438 304.113281 L 196.808594 242.761719 C 195.929688 241.773438 195.101562 240.746094 194.324219 239.679688 C 193.542969 238.613281 192.820312 237.511719 192.148438 236.371094 C 191.480469 235.234375 190.867188 234.0625 190.3125 232.867188 C 189.757812 231.667969 189.261719 230.445312 188.828125 229.195312 C 188.390625 227.949219 188.019531 226.683594 187.707031 225.398438 C 187.398438 224.117188 187.152344 222.820312 186.96875 221.511719 C 186.785156 220.203125 186.664062 218.890625 186.609375 217.570312 C 186.554688 216.25 186.566406 214.929688 186.640625 213.609375 C 186.71875 212.292969 186.859375 210.980469 187.0625 209.675781 C 187.265625 208.371094 187.535156 207.078125 187.867188 205.796875 C 188.195312 204.519531 188.589844 203.261719 189.042969 202.019531 C 189.5 200.78125 190.015625 199.566406 190.589844 198.375 C 191.164062 197.183594 191.792969 196.027344 192.484375 194.898438 C 193.171875 193.773438 193.914062 192.679688 194.707031 191.625 C 195.503906 190.570312 196.347656 189.558594 197.242188 188.585938 C 198.140625 187.613281 199.078125 186.6875 200.066406 185.808594 Z M 200.066406 185.808594 "/></g></g></g><path style=" stroke:none;fill-rule:nonzero;fill:#e6e6e6;fill-opacity:1;" d="M 155.8125 118.40625 C 155.8125 119.632812 155.753906 120.855469 155.632812 122.074219 C 155.511719 123.292969 155.332031 124.503906 155.09375 125.703125 C 154.855469 126.90625 154.558594 128.09375 154.203125 129.265625 C 153.847656 130.4375 153.433594 131.589844 152.964844 132.722656 C 152.496094 133.851562 151.972656 134.960938 151.394531 136.039062 C 150.816406 137.121094 150.1875 138.167969 149.507812 139.1875 C 148.828125 140.207031 148.097656 141.191406 147.320312 142.136719 C 146.542969 143.082031 145.722656 143.988281 144.855469 144.855469 C 143.988281 145.722656 143.082031 146.542969 142.136719 147.320312 C 141.191406 148.097656 140.207031 148.828125 139.1875 149.507812 C 138.167969 150.1875 137.121094 150.816406 136.039062 151.394531 C 134.957031 151.972656 133.851562 152.496094 132.722656 152.964844 C 131.589844 153.433594 130.4375 153.847656 129.265625 154.203125 C 128.09375 154.558594 126.90625 154.855469 125.703125 155.09375 C 124.503906 155.332031 123.292969 155.511719 122.074219 155.632812 C 120.851562 155.753906 119.632812 155.8125 118.40625 155.8125 C 117.179688 155.8125 115.960938 155.753906 114.738281 155.632812 C 113.519531 155.511719 112.308594 155.332031 111.109375 155.09375 C 109.90625 154.855469 108.71875 154.558594 107.546875 154.203125 C 106.375 153.847656 105.222656 153.433594 104.089844 152.964844 C 102.960938 152.496094 101.851562 151.972656 100.773438 151.394531 C 99.691406 150.816406 98.644531 150.1875 97.625 149.507812 C 96.605469 148.828125 95.621094 148.097656 94.675781 147.320312 C 93.730469 146.542969 92.824219 145.722656 91.957031 144.855469 C 91.089844 143.988281 90.269531 143.082031 89.492188 142.136719 C 88.714844 141.191406 87.984375 140.207031 87.304688 139.1875 C 86.625 138.167969 85.996094 137.121094 85.417969 136.039062 C 84.839844 134.960938 84.316406 133.851562 83.847656 132.722656 C 83.378906 131.589844 82.964844 130.4375 82.609375 129.265625 C 82.253906 128.09375 81.957031 126.90625 81.71875 125.703125 C 81.480469 124.503906 81.300781 123.292969 81.179688 122.074219 C 81.058594 120.855469 81 119.632812 81 118.40625 C 81 117.179688 81.058594 115.960938 81.179688 114.738281 C 81.300781 113.519531 81.480469 112.308594 81.71875 111.109375 C 81.957031 109.90625 82.253906 108.71875 82.609375 107.546875 C 82.964844 106.375 83.378906 105.222656 83.847656 104.089844 C 84.316406 102.960938 84.839844 101.855469 85.417969 100.773438 C 85.996094 99.691406 86.625 98.644531 87.304688 97.625 C 87.984375 96.605469 88.714844 95.621094 89.492188 94.675781 C 90.269531 93.730469 91.089844 92.824219 91.957031 91.957031 C 92.824219 91.089844 93.730469 90.269531 94.675781 89.492188 C 95.621094 88.714844 96.605469 87.984375 97.625 87.304688 C 98.644531 86.625 99.691406 85.996094 100.773438 85.417969 C 101.851562 84.839844 102.960938 84.316406 104.089844 83.847656 C 105.222656 83.378906 106.375 82.964844 107.546875 82.609375 C 108.71875 82.253906 109.90625 81.957031 111.109375 81.71875 C 112.308594 81.480469 113.519531 81.300781 114.738281 81.179688 C 115.960938 81.058594 117.179688 81 118.40625 81 C 119.632812 81 120.851562 81.058594 122.074219 81.179688 C 123.292969 81.300781 124.503906 81.480469 125.703125 81.71875 C 126.90625 81.957031 128.09375 82.253906 129.265625 82.609375 C 130.4375 82.964844 131.589844 83.378906 132.722656 83.847656 C 133.851562 84.316406 134.960938 84.839844 136.039062 85.417969 C 137.121094 85.996094 138.167969 86.625 139.1875 87.304688 C 140.207031 87.984375 141.191406 88.714844 142.136719 89.492188 C 143.082031 90.269531 143.988281 91.089844 144.855469 91.957031 C 145.722656 92.824219 146.542969 93.730469 147.320312 94.675781 C 148.097656 95.621094 148.828125 96.605469 149.507812 97.625 C 150.1875 98.644531 150.816406 99.691406 151.394531 100.773438 C 151.972656 101.855469 152.496094 102.960938 152.964844 104.089844 C 153.433594 105.222656 153.847656 106.375 154.203125 107.546875 C 154.558594 108.71875 154.855469 109.90625 155.09375 111.109375 C 155.332031 112.308594 155.511719 113.519531 155.632812 114.738281 C 155.753906 115.960938 155.8125 117.179688 155.8125 118.40625 Z M 155.8125 118.40625 "/><g clip-rule="nonzero" clip-path="url(#70467f9e60)"><g clip-rule="nonzero" clip-path="url(#0aaf226418)"><g clip-rule="nonzero" clip-path="url(#3f36e71074)"><path style=" stroke:none;fill-rule:nonzero;fill:#333333;fill-opacity:1;" d="M 538.53125 237.378906 L 599.882812 182.664062 C 600.871094 181.785156 601.894531 180.953125 602.964844 180.175781 C 604.03125 179.398438 605.132812 178.675781 606.273438 178.003906 C 607.410156 177.332031 608.578125 176.722656 609.777344 176.164062 C 610.976562 175.609375 612.199219 175.117188 613.449219 174.679688 C 614.695312 174.246094 615.960938 173.871094 617.246094 173.5625 C 618.527344 173.25 619.824219 173.003906 621.132812 172.820312 C 622.441406 172.636719 623.753906 172.519531 625.074219 172.464844 C 626.394531 172.410156 627.714844 172.421875 629.035156 172.496094 C 630.351562 172.570312 631.664062 172.710938 632.96875 172.914062 C 634.273438 173.121094 635.566406 173.386719 636.84375 173.71875 C 638.125 174.050781 639.382812 174.445312 640.625 174.898438 C 641.863281 175.355469 643.078125 175.867188 644.269531 176.441406 C 645.457031 177.015625 646.617188 177.648438 647.746094 178.335938 C 648.871094 179.023438 649.964844 179.765625 651.019531 180.5625 C 652.074219 181.359375 653.085938 182.203125 654.058594 183.097656 C 655.03125 183.992188 655.957031 184.933594 656.835938 185.917969 L 711.550781 247.273438 C 712.429688 248.257812 713.257812 249.285156 714.035156 250.351562 C 714.816406 251.417969 715.539062 252.523438 716.210938 253.660156 C 716.878906 254.800781 717.492188 255.96875 718.046875 257.167969 C 718.601562 258.363281 719.097656 259.589844 719.53125 260.835938 C 719.96875 262.082031 720.339844 263.347656 720.652344 264.632812 C 720.960938 265.917969 721.210938 267.210938 721.394531 268.519531 C 721.574219 269.828125 721.695312 271.144531 721.75 272.464844 C 721.804688 273.785156 721.792969 275.101562 721.71875 276.421875 C 721.640625 277.742188 721.5 279.050781 721.296875 280.359375 C 721.09375 281.664062 720.824219 282.953125 720.496094 284.234375 C 720.164062 285.511719 719.769531 286.773438 719.316406 288.011719 C 718.859375 289.253906 718.34375 290.46875 717.769531 291.65625 C 717.195312 292.847656 716.566406 294.003906 715.875 295.132812 C 715.1875 296.261719 714.445312 297.351562 713.652344 298.40625 C 712.855469 299.460938 712.011719 300.472656 711.117188 301.445312 C 710.21875 302.417969 709.28125 303.34375 708.292969 304.222656 L 646.941406 358.9375 C 645.957031 359.816406 644.929688 360.648438 643.863281 361.425781 C 642.792969 362.203125 641.691406 362.929688 640.554688 363.597656 C 639.414062 364.269531 638.246094 364.878906 637.046875 365.4375 C 635.847656 365.992188 634.625 366.484375 633.378906 366.921875 C 632.128906 367.355469 630.863281 367.730469 629.582031 368.039062 C 628.296875 368.351562 627 368.597656 625.691406 368.78125 C 624.382812 368.964844 623.070312 369.082031 621.75 369.136719 C 620.429688 369.191406 619.109375 369.179688 617.792969 369.105469 C 616.472656 369.03125 615.160156 368.890625 613.855469 368.6875 C 612.550781 368.480469 611.257812 368.214844 609.980469 367.882812 C 608.699219 367.550781 607.441406 367.15625 606.203125 366.703125 C 604.960938 366.246094 603.746094 365.734375 602.554688 365.160156 C 601.367188 364.585938 600.207031 363.953125 599.082031 363.265625 C 597.953125 362.578125 596.863281 361.835938 595.808594 361.039062 C 594.753906 360.242188 593.738281 359.398438 592.765625 358.503906 C 591.796875 357.609375 590.871094 356.667969 589.992188 355.683594 L 535.273438 294.328125 C 534.394531 293.34375 533.566406 292.316406 532.789062 291.25 C 532.011719 290.183594 531.285156 289.078125 530.617188 287.941406 C 529.945312 286.800781 529.332031 285.632812 528.777344 284.433594 C 528.222656 283.238281 527.726562 282.011719 527.292969 280.765625 C 526.855469 279.519531 526.484375 278.253906 526.171875 276.96875 C 525.863281 275.683594 525.617188 274.390625 525.433594 273.082031 C 525.25 271.773438 525.128906 270.457031 525.078125 269.136719 C 525.023438 267.816406 525.03125 266.5 525.109375 265.179688 C 525.183594 263.859375 525.324219 262.550781 525.527344 261.242188 C 525.730469 259.9375 526 258.648438 526.332031 257.367188 C 526.664062 256.089844 527.054688 254.828125 527.511719 253.589844 C 527.964844 252.347656 528.480469 251.132812 529.054688 249.945312 C 529.628906 248.753906 530.261719 247.597656 530.949219 246.46875 C 531.636719 245.339844 532.378906 244.25 533.175781 243.195312 C 533.96875 242.140625 534.816406 241.128906 535.710938 240.15625 C 536.605469 239.183594 537.546875 238.257812 538.53125 237.378906 Z M 538.53125 237.378906 "/></g></g></g><g clip-rule="nonzero" clip-path="url(#b0db83c9c3)"><path style=" stroke:none;fill-rule:nonzero;fill:#e6e6e6;fill-opacity:1;" d="M 257.765625 118.40625 C 257.765625 119.632812 257.707031 120.855469 257.585938 122.074219 C 257.46875 123.292969 257.289062 124.503906 257.046875 125.703125 C 256.808594 126.90625 256.511719 128.09375 256.15625 129.265625 C 255.800781 130.4375 255.386719 131.589844 254.917969 132.722656 C 254.449219 133.851562 253.925781 134.960938 253.351562 136.039062 C 252.773438 137.121094 252.144531 138.167969 251.464844 139.1875 C 250.78125 140.207031 250.054688 141.191406 249.277344 142.136719 C 248.5 143.082031 247.675781 143.988281 246.8125 144.855469 C 245.945312 145.722656 245.039062 146.542969 244.089844 147.320312 C 243.144531 148.097656 242.160156 148.828125 241.144531 149.507812 C 240.125 150.1875 239.074219 150.816406 237.992188 151.394531 C 236.914062 151.972656 235.808594 152.496094 234.675781 152.964844 C 233.542969 153.433594 232.390625 153.847656 231.21875 154.203125 C 230.046875 154.558594 228.859375 154.855469 227.660156 155.09375 C 226.457031 155.332031 225.246094 155.511719 224.027344 155.632812 C 222.808594 155.753906 221.585938 155.8125 220.359375 155.8125 C 219.136719 155.8125 217.914062 155.753906 216.695312 155.632812 C 215.476562 155.511719 214.265625 155.332031 213.0625 155.09375 C 211.863281 154.855469 210.675781 154.558594 209.503906 154.203125 C 208.328125 153.847656 207.179688 153.433594 206.046875 152.964844 C 204.914062 152.496094 203.808594 151.972656 202.726562 151.394531 C 201.648438 150.816406 200.597656 150.1875 199.578125 149.507812 C 198.558594 148.828125 197.578125 148.097656 196.628906 147.320312 C 195.683594 146.542969 194.777344 145.722656 193.910156 144.855469 C 193.042969 143.988281 192.222656 143.082031 191.445312 142.136719 C 190.667969 141.191406 189.9375 140.207031 189.257812 139.1875 C 188.578125 138.167969 187.949219 137.121094 187.371094 136.039062 C 186.792969 134.960938 186.269531 133.851562 185.800781 132.722656 C 185.332031 131.589844 184.921875 130.4375 184.566406 129.265625 C 184.210938 128.09375 183.914062 126.90625 183.671875 125.703125 C 183.433594 124.503906 183.253906 123.292969 183.132812 122.074219 C 183.015625 120.855469 182.953125 119.632812 182.953125 118.40625 C 182.953125 117.179688 183.015625 115.960938 183.132812 114.738281 C 183.253906 113.519531 183.433594 112.308594 183.671875 111.109375 C 183.914062 109.90625 184.210938 108.71875 184.566406 107.546875 C 184.921875 106.375 185.332031 105.222656 185.800781 104.089844 C 186.269531 102.960938 186.792969 101.855469 187.371094 100.773438 C 187.949219 99.691406 188.578125 98.644531 189.257812 97.625 C 189.9375 96.605469 190.667969 95.621094 191.445312 94.675781 C 192.222656 93.730469 193.042969 92.824219 193.910156 91.957031 C 194.777344 91.089844 195.683594 90.269531 196.628906 89.492188 C 197.578125 88.714844 198.558594 87.984375 199.578125 87.304688 C 200.597656 86.625 201.648438 85.996094 202.726562 85.417969 C 203.808594 84.839844 204.914062 84.316406 206.046875 83.847656 C 207.179688 83.378906 208.328125 82.964844 209.503906 82.609375 C 210.675781 82.253906 211.863281 81.957031 213.0625 81.71875 C 214.265625 81.480469 215.476562 81.300781 216.695312 81.179688 C 217.914062 81.058594 219.136719 81 220.359375 81 C 221.585938 81 222.808594 81.058594 224.027344 81.179688 C 225.246094 81.300781 226.457031 81.480469 227.660156 81.71875 C 228.859375 81.957031 230.046875 82.253906 231.21875 82.609375 C 232.390625 82.964844 233.542969 83.378906 234.675781 83.847656 C 235.808594 84.316406 236.914062 84.839844 237.992188 85.417969 C 239.074219 85.996094 240.125 86.625 241.144531 87.304688 C 242.160156 87.984375 243.144531 88.714844 244.089844 89.492188 C 245.039062 90.269531 245.945312 91.089844 246.8125 91.957031 C 247.675781 92.824219 248.5 93.730469 249.277344 94.675781 C 250.054688 95.621094 250.78125 96.605469 251.464844 97.625 C 252.144531 98.644531 252.773438 99.691406 253.351562 100.773438 C 253.925781 101.855469 254.449219 102.960938 254.917969 104.089844 C 255.386719 105.222656 255.800781 106.375 256.15625 107.546875 C 256.511719 108.71875 256.808594 109.90625 257.046875 111.109375 C 257.289062 112.308594 257.46875 113.519531 257.585938 114.738281 C 257.707031 115.960938 257.765625 117.179688 257.765625 118.40625 Z M 257.765625 118.40625 "/></g><g clip-rule="nonzero" clip-path="url(#e78473d366)"><path style=" stroke:none;fill-rule:nonzero;fill:#e6e6e6;fill-opacity:1;" d="M 359.582031 118.40625 C 359.582031 119.632812 359.519531 120.855469 359.402344 122.074219 C 359.28125 123.292969 359.101562 124.503906 358.863281 125.703125 C 358.621094 126.90625 358.324219 128.09375 357.96875 129.265625 C 357.613281 130.4375 357.203125 131.589844 356.734375 132.722656 C 356.265625 133.851562 355.742188 134.960938 355.164062 136.039062 C 354.585938 137.121094 353.957031 138.167969 353.277344 139.1875 C 352.597656 140.207031 351.867188 141.191406 351.089844 142.136719 C 350.3125 143.082031 349.492188 143.988281 348.625 144.855469 C 347.757812 145.722656 346.851562 146.542969 345.90625 147.320312 C 344.957031 148.097656 343.976562 148.828125 342.957031 149.507812 C 341.9375 150.1875 340.886719 150.816406 339.808594 151.394531 C 338.726562 151.972656 337.621094 152.496094 336.488281 152.964844 C 335.359375 153.433594 334.207031 153.847656 333.03125 154.203125 C 331.859375 154.558594 330.671875 154.855469 329.472656 155.09375 C 328.269531 155.332031 327.058594 155.511719 325.839844 155.632812 C 324.621094 155.753906 323.398438 155.8125 322.175781 155.8125 C 320.949219 155.8125 319.726562 155.753906 318.507812 155.632812 C 317.289062 155.511719 316.078125 155.332031 314.875 155.09375 C 313.675781 154.855469 312.488281 154.558594 311.316406 154.203125 C 310.144531 153.847656 308.992188 153.433594 307.859375 152.964844 C 306.726562 152.496094 305.621094 151.972656 304.542969 151.394531 C 303.460938 150.816406 302.410156 150.1875 301.394531 149.507812 C 300.375 148.828125 299.390625 148.097656 298.445312 147.320312 C 297.496094 146.542969 296.589844 145.722656 295.722656 144.855469 C 294.859375 143.988281 294.035156 143.082031 293.257812 142.136719 C 292.480469 141.191406 291.753906 140.207031 291.074219 139.1875 C 290.390625 138.167969 289.761719 137.121094 289.183594 136.039062 C 288.609375 134.960938 288.085938 133.851562 287.617188 132.722656 C 287.148438 131.589844 286.734375 130.4375 286.378906 129.265625 C 286.023438 128.09375 285.726562 126.90625 285.488281 125.703125 C 285.246094 124.503906 285.070312 123.292969 284.949219 122.074219 C 284.828125 120.855469 284.769531 119.632812 284.769531 118.40625 C 284.769531 117.179688 284.828125 115.960938 284.949219 114.738281 C 285.070312 113.519531 285.246094 112.308594 285.488281 111.109375 C 285.726562 109.90625 286.023438 108.71875 286.378906 107.546875 C 286.734375 106.375 287.148438 105.222656 287.617188 104.089844 C 288.085938 102.960938 288.609375 101.855469 289.183594 100.773438 C 289.761719 99.691406 290.390625 98.644531 291.074219 97.625 C 291.753906 96.605469 292.480469 95.621094 293.257812 94.675781 C 294.035156 93.730469 294.859375 92.824219 295.722656 91.957031 C 296.589844 91.089844 297.496094 90.269531 298.445312 89.492188 C 299.390625 88.714844 300.375 87.984375 301.394531 87.304688 C 302.410156 86.625 303.460938 85.996094 304.542969 85.417969 C 305.621094 84.839844 306.726562 84.316406 307.859375 83.847656 C 308.992188 83.378906 310.144531 82.964844 311.316406 82.609375 C 312.488281 82.253906 313.675781 81.957031 314.875 81.71875 C 316.078125 81.480469 317.289062 81.300781 318.507812 81.179688 C 319.726562 81.058594 320.949219 81 322.175781 81 C 323.398438 81 324.621094 81.058594 325.839844 81.179688 C 327.058594 81.300781 328.269531 81.480469 329.472656 81.71875 C 330.671875 81.957031 331.859375 82.253906 333.03125 82.609375 C 334.207031 82.964844 335.359375 83.378906 336.488281 83.847656 C 337.621094 84.316406 338.726562 84.839844 339.808594 85.417969 C 340.886719 85.996094 341.9375 86.625 342.957031 87.304688 C 343.976562 87.984375 344.957031 88.714844 345.90625 89.492188 C 346.851562 90.269531 347.757812 91.089844 348.625 91.957031 C 349.492188 92.824219 350.3125 93.730469 351.089844 94.675781 C 351.867188 95.621094 352.597656 96.605469 353.277344 97.625 C 353.957031 98.644531 354.585938 99.691406 355.164062 100.773438 C 355.742188 101.855469 356.265625 102.960938 356.734375 104.089844 C 357.203125 105.222656 357.613281 106.375 357.96875 107.546875 C 358.324219 108.71875 358.621094 109.90625 358.863281 111.109375 C 359.101562 112.308594 359.28125 113.519531 359.402344 114.738281 C 359.519531 115.960938 359.582031 117.179688 359.582031 118.40625 Z M 359.582031 118.40625 "/></g></g></svg>